HIERARCHY
ROOT Hips
{
	OFFSET 0.000000 0.000000 0.000000
	CHANNELS 6 Xposition Yposition Zposition Xrotation Yrotation Zrotation
	JOINT LeftUpLeg_virtual
	{
		OFFSET 0.000000 0.000000 0.000000
		CHANNELS 3 Xrotation Yrotation Zrotation
		JOINT LeftUpLeg
		{
			OFFSET 10.205400 -3.823500 0.155100
			CHANNELS 3 Xrotation Yrotation Zrotation
			JOINT LeftLeg
			{
				OFFSET 0.708757 -12.982077 0.567790
				CHANNELS 3 Xrotation Yrotation Zrotation
				JOINT LeftFoot
				{
					OFFSET -0.708756 -10.717838 -2.184338
					CHANNELS 3 Xrotation Yrotation Zrotation
					JOINT LeftToeBase
					{
						OFFSET 0.108149 -7.191104 7.560241
						CHANNELS 3 Xrotation Yrotation Zrotation
						JOINT LeftToe_End
						{
							OFFSET 0.070230 0.081724 4.490308
							CHANNELS 3 Xrotation Yrotation Zrotation
							End Site
							{
								OFFSET 0 0 0
							}
						}
					}
				}
			}
		}
	}
	JOINT RightUpLeg_virtual
	{
		OFFSET 0.000000 0.000000 0.000000
		CHANNELS 3 Xrotation Yrotation Zrotation
		JOINT RightUpLeg
		{
			OFFSET -10.205400 -3.823500 0.005500
			CHANNELS 3 Xrotation Yrotation Zrotation
			JOINT RightLeg
			{
				OFFSET -0.708756 -12.982134 0.610632
				CHANNELS 3 Xrotation Yrotation Zrotation
				JOINT RightFoot
				{
					OFFSET 0.708754 -10.717769 -1.945823
					CHANNELS 3 Xrotation Yrotation Zrotation
					JOINT RightToeBase
					{
						OFFSET -0.108140 -7.191069 7.372968
						CHANNELS 3 Xrotation Yrotation Zrotation
						JOINT RightToe_End
						{
							OFFSET -0.070227 0.081735 4.479403
							CHANNELS 3 Xrotation Yrotation Zrotation
							End Site
							{
								OFFSET 0 0 0
							}
						}
					}
				}
			}
		}
	}
	JOINT Spine_virtual
	{
		OFFSET 0.000000 0.000000 0.000000
		CHANNELS 3 Xrotation Yrotation Zrotation
		JOINT Spine
		{
			OFFSET 0.000000 6.876099 0.125700
			CHANNELS 3 Xrotation Yrotation Zrotation
			JOINT Spine1
			{
				OFFSET 0.000000 5.730043 0.104720
				CHANNELS 3 Xrotation Yrotation Zrotation
				JOINT Spine1_split
				{
					OFFSET 0.000000 5.730043 0.104720
					CHANNELS 3 Xrotation Yrotation Zrotation
					JOINT Spine2
					{
						OFFSET 0.000000 5.730043 0.104720
						CHANNELS 3 Xrotation Yrotation Zrotation
						JOINT Neck_virtual
						{
							OFFSET 0.000000 0.000000 0.000000
							CHANNELS 3 Xrotation Yrotation Zrotation
							JOINT Neck
							{
								OFFSET 0.000000 10.314075 0.188496
								CHANNELS 3 Xrotation Yrotation Zrotation
								JOINT Head
								{
									OFFSET 0.000000 7.643700 -2.377400
									CHANNELS 3 Xrotation Yrotation Zrotation
									JOINT HeadTop_End
									{
										OFFSET 0.000000 43.788605 -13.619600
										CHANNELS 3 Xrotation Yrotation Zrotation
										End Site
										{
											OFFSET 0 0 0
										}
									}
								}
							}
						}
						JOINT LeftShoulder_virtual
						{
							OFFSET 0.000000 0.000000 0.000000
							CHANNELS 3 Xrotation Yrotation Zrotation
							JOINT LeftShoulder
							{
								OFFSET 2.196100 4.412489 0.087492
								CHANNELS 3 Xrotation Yrotation Zrotation
								JOINT LeftShoulder_split
								{
									OFFSET 2.196100 4.412489 0.087492
									CHANNELS 3 Xrotation Yrotation Zrotation
									JOINT LeftArm
									{
										OFFSET 8.771219 -2.981674 -0.026999
										CHANNELS 3 Xrotation Yrotation Zrotation
										JOINT LeftForeArm
										{
											OFFSET 8.512804 0.000000 -0.000000
											CHANNELS 3 Xrotation Yrotation Zrotation
											JOINT LeftHand
											{
												OFFSET 18.484802 0.000000 -0.000000
												CHANNELS 3 Xrotation Yrotation Zrotation
												End Site
												{
													OFFSET 0 0 0
												}
											}
										}
									}
								}
							}
						}
						JOINT RightShoulder_virtual
						{
							OFFSET 0.000000 0.000000 0.000000
							CHANNELS 3 Xrotation Yrotation Zrotation
							JOINT RightShoulder
							{
								OFFSET -2.196100 4.412496 0.070690
								CHANNELS 3 Xrotation Yrotation Zrotation
								JOINT RightShoulder_split
								{
									OFFSET -2.196100 4.412496 0.070690
									CHANNELS 3 Xrotation Yrotation Zrotation
									JOINT RightArm
									{
										OFFSET -8.771282 -2.981682 -0.094208
										CHANNELS 3 Xrotation Yrotation Zrotation
										JOINT RightForeArm
										{
											OFFSET -8.494598 0.000000 0.000000
											CHANNELS 3 Xrotation Yrotation Zrotation
											JOINT RightHand
											{
												OFFSET -18.483803 0.000000 0.000001
												CHANNELS 3 Xrotation Yrotation Zrotation
												End Site
												{
													OFFSET 0 0 0
												}
											}
										}
									}
								}
							}
						}
					}
				}
			}
		}
	}
}
MOTION
Frames: 7
Frame Time: 0.03333333
44.919151 38.766083 81.338295 0.000000 0.000000 0.000000 -102.482132 -73.049788 178.563985 -54.429183 18.305173 26.343894 95.496816 -4.070370 -9.788676 1.291755 -7.365472 -5.533395 -0.340922 -0.000014 0.000035 0.000000 0.000000 0.000000 -102.482132 -73.049788 178.563985 -48.200611 24.588546 -71.248763 89.586359 19.987746 0.080029 -22.850871 -5.917964 22.293884 8.673141 -0.000048 0.000002 0.000000 0.000000 0.000000 -102.482132 -73.049788 178.563985 11.400016 1.153110 3.320349 2.771609 9.957183 10.412057 0.000000 0.000000 0.000000 0.000000 0.000000 0.000000 -0.882308 2.661913 7.798882 19.891620 6.141131 11.410928 15.465594 35.529258 -18.333563 0.000000 0.000000 0.000000 -0.882308 2.661913 7.798882 -0.098463 -5.977426 0.627820 0.000000 0.000000 0.000000 9.798801 -4.593788 -1.481028 -0.000005 -29.759595 0.000001 0.000000 0.000000 0.000000 -0.882308 2.661913 7.798882 0.821623 0.232458 16.066161 0.000000 0.000000 0.000000 -41.494273 7.833430 12.026883 0.000006 18.396525 -0.000013 0.000000 0.000000 0.000000 
47.593460 36.553787 85.015633 0.000000 0.000000 0.000000 -100.742613 -66.232044 177.681429 -51.913102 20.871096 27.979819 94.964368 -4.822150 -10.195697 -1.605825 -9.185136 -6.971647 0.669958 -0.000003 0.000027 0.000000 0.000000 0.000000 -100.742613 -66.232044 177.681429 -56.264578 28.927893 -63.471541 84.061959 16.856560 -1.590059 -13.305407 -4.568288 26.832323 8.592427 -0.000054 0.000010 0.000000 0.000000 0.000000 -100.742613 -66.232044 177.681429 11.560379 1.446750 1.540744 4.854296 11.245298 9.491969 0.000000 0.000000 0.000000 0.000000 0.000000 0.000000 -0.264529 4.650248 6.859576 17.054962 5.940629 9.977816 17.218046 33.848109 -18.256828 0.000000 0.000000 0.000000 -0.264529 4.650248 6.859576 0.094772 -6.199206 -0.123080 0.000000 0.000000 0.000000 9.665289 -8.508380 -0.913032 -0.000006 -16.045849 -0.000004 0.000000 0.000000 0.000000 -0.264529 4.650248 6.859576 0.702724 0.170131 17.086806 0.000000 0.000000 0.000000 -42.474344 9.627230 15.642588 0.000006 21.324540 -0.000003 0.000000 0.000000 0.000000 
50.259903 33.924740 88.730675 0.000000 0.000000 0.000000 -98.999617 -65.963235 176.389280 -52.586658 18.776494 25.131350 96.281823 -4.369828 -9.177367 -1.544872 -7.923383 -6.111002 0.402816 0.000011 -0.000016 0.000000 0.000000 0.000000 -98.999617 -65.963235 176.389280 -58.636566 27.361965 -62.756092 77.713687 15.399309 -2.821756 -5.557488 -2.816016 31.857601 7.955519 -0.000059 -0.000004 0.000000 0.000000 0.000000 -98.999617 -65.963235 176.389280 11.757920 1.052872 1.001274 5.957492 11.339480 9.012858 0.000000 0.000000 0.000000 0.000000 0.000000 0.000000 0.073770 4.191037 6.295747 13.799725 5.635489 8.568026 19.962053 31.780706 -18.252622 0.000000 0.000000 0.000000 0.073770 4.191037 6.295747 0.268092 -6.237658 -0.973462 0.000000 0.000000 0.000000 7.893513 -4.110868 1.992680 -0.000006 -21.678775 0.000011 0.000000 0.000000 0.000000 0.073770 4.191037 6.295747 0.787632 0.240706 18.556292 0.000000 0.000000 0.000000 -42.487926 7.719427 18.634650 0.000000 29.131279 0.000008 0.000000 0.000000 0.000000 
53.156418 30.188414 93.238831 0.000000 0.000000 0.000000 -100.250136 -63.231473 171.584379 -53.762441 15.147679 21.095125 96.295641 -1.930980 -7.493615 0.708125 -6.271003 -7.614002 0.467823 -0.000017 0.000007 0.000000 0.000000 0.000000 -100.250136 -63.231473 171.584379 -67.660940 28.384900 -57.255574 71.213260 13.253307 -5.647857 5.194892 2.240756 35.345368 2.668161 -0.000027 -0.000003 0.000000 0.000000 0.000000 -100.250136 -63.231473 171.584379 12.019321 0.790190 1.722792 6.471731 11.084015 8.784408 0.000000 0.000000 0.000000 0.000000 0.000000 0.000000 0.445380 2.770609 5.891446 11.640447 5.195606 7.192129 19.687687 29.472789 -17.527331 0.000000 0.000000 0.000000 0.445380 2.770609 5.891446 0.150623 -6.043559 -3.147592 0.000000 0.000000 0.000000 4.885609 7.041733 4.864221 -0.000012 -28.737034 0.000002 0.000000 0.000000 0.000000 0.445380 2.770609 5.891446 0.910781 0.309268 19.874172 0.000000 0.000000 0.000000 -41.661152 4.331592 22.138675 0.000004 40.042865 -0.000015 0.000000 0.000000 0.000000 
56.694115 24.381687 99.435989 0.000000 0.000000 0.000000 -103.954543 -48.692384 166.133587 -55.384081 14.062152 14.953395 86.370379 2.586714 -5.375050 8.388960 0.124012 -15.655975 1.252080 -0.000006 0.000010 0.000000 0.000000 0.000000 -103.954543 -48.692384 166.133587 -92.950364 29.412912 -34.305530 61.203051 7.271249 -6.458338 21.712106 5.955909 30.765064 0.258277 -0.000003 0.000011 0.000000 0.000000 0.000000 -103.954543 -48.692384 166.133587 12.362133 1.328420 2.751733 6.776481 10.711421 8.774128 0.000000 0.000000 0.000000 0.000000 0.000000 0.000000 1.102007 1.953584 6.037225 11.020232 4.591011 5.860858 17.139342 26.777902 -16.307126 0.000000 0.000000 0.000000 1.102007 1.953584 6.037225 -0.402353 -5.311628 -7.757123 0.000000 0.000000 0.000000 -1.431225 31.188508 3.323718 -0.000021 -60.418337 -0.000017 0.000000 0.000000 0.000000 1.102007 1.953584 6.037225 0.867101 0.505544 22.720556 0.000000 0.000000 0.000000 -41.589322 -1.043977 23.666640 0.000010 53.515140 -0.000006 0.000000 0.000000 0.000000 
60.440994 17.844114 106.225449 0.000000 0.000000 0.000000 -104.290841 -28.753023 165.012480 -57.191209 12.623300 15.825470 74.065875 7.929722 -4.758420 18.192847 5.092315 -23.605065 -1.095757 -0.000016 0.000006 0.000000 0.000000 0.000000 -104.290841 -28.753023 165.012480 -111.456290 18.491627 -11.463579 49.767668 1.170125 -4.876268 33.460236 4.943864 16.568936 -0.620256 0.000000 0.000000 0.000000 0.000000 0.000000 -104.290841 -28.753023 165.012480 12.720520 1.917162 3.310439 6.942539 10.336696 9.288601 0.000000 0.000000 0.000000 0.000000 0.000000 0.000000 2.164729 2.666140 7.069456 13.090749 3.791964 4.585001 16.406196 23.775175 -15.288139 0.000000 0.000000 0.000000 2.164729 2.666140 7.069456 0.627027 -4.278466 -6.424779 0.000000 0.000000 0.000000 4.587701 39.001586 -16.318288 0.000034 -83.418193 0.000035 0.000000 0.000000 0.000000 2.164729 2.666140 7.069456 0.796492 1.040675 23.150153 0.000000 0.000000 0.000000 -41.751597 -10.010162 22.002090 -0.000008 63.321229 0.000017 0.000000 0.000000 0.000000 
63.389847 13.302183 111.440880 0.000000 0.000000 0.000000 -101.049500 -8.433907 167.125071 -54.000056 17.728574 27.824189 69.031745 2.821135 -6.040370 14.821075 8.721597 -31.227587 -0.803058 0.000007 0.000005 0.000000 0.000000 0.000000 -101.049500 -8.433907 167.125071 -109.712161 7.365737 5.968762 23.988681 1.444152 -3.971415 56.135590 4.850093 8.955690 -0.783697 -0.000003 0.000000 0.000000 0.000000 0.000000 -101.049500 -8.433907 167.125071 13.031741 1.985019 3.755448 4.897574 9.699482 10.877732 0.000000 0.000000 0.000000 0.000000 0.000000 0.000000 2.427274 4.340832 8.169464 15.782317 2.768989 3.375107 15.860094 20.880399 -14.387973 0.000000 0.000000 0.000000 2.427274 4.340832 8.169464 4.001235 -2.918584 6.646706 0.000000 0.000000 0.000000 14.465810 4.457889 -38.232684 0.000017 -68.941197 0.000018 0.000000 0.000000 0.000000 2.427274 4.340832 8.169464 0.398676 6.571691 16.618865 0.000000 0.000000 0.000000 -35.135692 -25.520643 24.384822 0.000012 76.653287 -0.000004 0.000000 0.000000 0.000000 
